# xmcd
#
# Track frame offsets:
#	150
#	9450
#	20475
#	31173
#	41982
#	50866
#	59724
#	71422
#	84495
#	97854
#	109496
#	120150
#	131874
#	143692
#	153479
#
# Disc length: 2225 seconds
#
# Revision: 0
# Processed by: cddbd v1.5.2PL0 Copyright (c) Steve Scherf et al.
# Submitted via: EZCDAudioConverter 2.1.7.1
#
DISCID=ce08af0f
DTITLE=V/A - Return To The Star-Club
DYEAR=1900
DGENRE=MOJO
TTITLE0=Top Notes - Twist And Shout
TTITLE1=Billy The Kid Emerson - Red Hot
TTITLE2=The Olympics - Shimmy Like Kate
TTITLE3=Chuck Berry - Roll Over Beethoven
TTITLE4=Buddy Holly - Reminiscing
TTITLE5=Carl Perkins - Lend Me Your Comb
TTITLE6=Gene Vincent and His Blue Caps - Be-Bop-A-Lula
TTITLE7=Eddie Fontaine - Nothin' Shakin'
TTITLE8=Roy Hamilton - I'm Gonna Sit Right Down And Cry
TTITLE9=Ray Charles - Hallelujah I Love Her So
TTITLE10=The Platters - Red Sails In The Sunset
TTITLE11=Dr. Feelgood and The Interns - Mister Moonlight
TTITLE12=Ink Spots - Your Feet's Too Big
TTITLE13=Billy Dee Williams - A Taste Of Honey
TTITLE14=Marlene Dietrich - Falling In Love Again
EXTD=
EXTT0=
EXTT1=
EXTT2=
EXTT3=
EXTT4=
EXTT5=
EXTT6=
EXTT7=
EXTT8=
EXTT9=
EXTT10=
EXTT11=
EXTT12=
EXTT13=
EXTT14=
PLAYORDER=
